<svg width="175" height="58" viewBox="0 0 175 58" fill="none" xmlns="http://www.w3.org/2000/svg">
<rect width="175" height="58" rx="10" fill="#B1CED4"/>
<path d="M40.9 24.5H39.1V28.1H35.5V29.9H39.1V33.5H40.9V29.9H44.5V28.1H40.9V24.5ZM40 20C35.032 20 31 24.032 31 29C31 33.968 35.032 38 40 38C44.968 38 49 33.968 49 29C49 24.032 44.968 20 40 20ZM40 36.2C36.031 36.2 32.8 32.969 32.8 29C32.8 25.031 36.031 21.8 40 21.8C43.969 21.8 47.2 25.031 47.2 29C47.2 32.969 43.969 36.2 40 36.2Z" fill="#2C3832"/>
<path d="M68.936 34.008C68.968 34.104 68.984 34.2053 68.984 34.312C68.984 34.5253 68.9093 34.7013 68.76 34.84C68.6213 34.9787 68.456 35.048 68.264 35.048C68.1147 35.048 67.976 35.0053 67.848 34.92C67.7307 34.824 67.6347 34.696 67.56 34.536L66.568 32.184H61.624L60.648 34.552C60.5947 34.712 60.504 34.8347 60.376 34.92C60.2587 35.0053 60.1253 35.048 59.976 35.048C59.752 35.048 59.5813 34.9893 59.464 34.872C59.3467 34.7547 59.288 34.5947 59.288 34.392C59.288 34.3493 59.2987 34.264 59.32 34.136L63.4 24.248C63.4747 24.0773 63.576 23.9493 63.704 23.864C63.8427 23.768 63.9973 23.7307 64.168 23.752C64.328 23.752 64.472 23.7947 64.6 23.88C64.728 23.9653 64.8187 24.088 64.872 24.248L68.936 34.008ZM62.232 30.728H65.96L64.088 26.248L62.232 30.728ZM75.2976 23.8C76.3003 23.8 77.159 24.0507 77.8736 24.552C78.5883 25.0533 79.127 25.7307 79.4896 26.584C79.8523 27.4267 80.0336 28.3653 80.0336 29.4C80.0336 30.4453 79.8523 31.3947 79.4896 32.248C79.127 33.0907 78.5883 33.7627 77.8736 34.264C77.159 34.7547 76.3003 35 75.2976 35H71.3616C71.1483 35 70.967 34.9253 70.8176 34.776C70.6683 34.6267 70.5936 34.4453 70.5936 34.232V24.568C70.5936 24.3547 70.6683 24.1733 70.8176 24.024C70.967 23.8747 71.1483 23.8 71.3616 23.8H75.2976ZM75.1376 33.528C76.2256 33.528 77.0416 33.144 77.5856 32.376C78.1296 31.5973 78.4016 30.6053 78.4016 29.4C78.4016 28.2053 78.1243 27.2187 77.5696 26.44C77.0256 25.6613 76.215 25.272 75.1376 25.272H72.1776V33.528H75.1376ZM86.7664 23.8C87.769 23.8 88.6277 24.0507 89.3424 24.552C90.057 25.0533 90.5957 25.7307 90.9584 26.584C91.321 27.4267 91.5024 28.3653 91.5024 29.4C91.5024 30.4453 91.321 31.3947 90.9584 32.248C90.5957 33.0907 90.057 33.7627 89.3424 34.264C88.6277 34.7547 87.769 35 86.7664 35H82.8304C82.617 35 82.4357 34.9253 82.2864 34.776C82.137 34.6267 82.0624 34.4453 82.0624 34.232V24.568C82.0624 24.3547 82.137 24.1733 82.2864 24.024C82.4357 23.8747 82.617 23.8 82.8304 23.8H86.7664ZM86.6064 33.528C87.6944 33.528 88.5104 33.144 89.0544 32.376C89.5984 31.5973 89.8704 30.6053 89.8704 29.4C89.8704 28.2053 89.593 27.2187 89.0384 26.44C88.4944 25.6613 87.6837 25.272 86.6064 25.272H83.6464V33.528H86.6064ZM105.233 23.8C105.457 23.8 105.638 23.8693 105.777 24.008C105.926 24.136 106.001 24.312 106.001 24.536C106.001 24.76 105.926 24.936 105.777 25.064C105.638 25.192 105.457 25.256 105.233 25.256H102.385V34.232C102.385 34.4453 102.305 34.6267 102.145 34.776C101.995 34.9253 101.803 35 101.569 35C101.334 35 101.137 34.9253 100.977 34.776C100.827 34.6267 100.753 34.4453 100.753 34.232V25.256H97.9206C97.6966 25.256 97.51 25.192 97.3606 25.064C97.222 24.9253 97.1526 24.744 97.1526 24.52C97.1526 24.3067 97.222 24.136 97.3606 24.008C97.51 23.8693 97.6966 23.8 97.9206 23.8H105.233ZM115.655 34.008C115.687 34.104 115.703 34.2053 115.703 34.312C115.703 34.5253 115.628 34.7013 115.479 34.84C115.34 34.9787 115.175 35.048 114.983 35.048C114.833 35.048 114.695 35.0053 114.567 34.92C114.449 34.824 114.353 34.696 114.279 34.536L113.287 32.184H108.343L107.367 34.552C107.313 34.712 107.223 34.8347 107.095 34.92C106.977 35.0053 106.844 35.048 106.695 35.048C106.471 35.048 106.3 34.9893 106.183 34.872C106.065 34.7547 106.007 34.5947 106.007 34.392C106.007 34.3493 106.017 34.264 106.039 34.136L110.119 24.248C110.193 24.0773 110.295 23.9493 110.423 23.864C110.561 23.768 110.716 23.7307 110.887 23.752C111.047 23.752 111.191 23.7947 111.319 23.88C111.447 23.9653 111.537 24.088 111.591 24.248L115.655 34.008ZM108.951 30.728H112.679L110.807 26.248L108.951 30.728ZM123.728 28.888C124.315 29.0907 124.795 29.4267 125.168 29.896C125.552 30.3547 125.744 30.9573 125.744 31.704C125.744 32.888 125.398 33.736 124.704 34.248C124.022 34.7493 123.184 35 122.192 35H118.08C117.867 35 117.686 34.9253 117.536 34.776C117.387 34.6267 117.312 34.4453 117.312 34.232V24.568C117.312 24.3547 117.387 24.1733 117.536 24.024C117.686 23.8747 117.867 23.8 118.08 23.8H122.192C123.163 23.8 123.899 24.04 124.4 24.52C124.912 25 125.168 25.6933 125.168 26.6C125.168 27.112 125.046 27.5707 124.8 27.976C124.555 28.3707 124.198 28.6747 123.728 28.888ZM123.52 26.84C123.52 26.3387 123.382 25.96 123.104 25.704C122.838 25.4373 122.459 25.304 121.968 25.304H118.944V28.424H122C122.438 28.4133 122.8 28.2747 123.088 28.008C123.376 27.7307 123.52 27.3413 123.52 26.84ZM122.176 33.528C122.763 33.528 123.232 33.3787 123.584 33.08C123.936 32.7707 124.112 32.312 124.112 31.704C124.112 30.52 123.44 29.928 122.096 29.928H118.944V33.528H122.176ZM133.942 33.512C134.166 33.512 134.347 33.5813 134.486 33.72C134.635 33.8587 134.71 34.04 134.71 34.264C134.71 34.4773 134.635 34.6533 134.486 34.792C134.347 34.9307 134.166 35 133.942 35H128.534C128.31 35 128.123 34.9253 127.974 34.776C127.835 34.6267 127.766 34.4453 127.766 34.232V24.568C127.766 24.3547 127.84 24.1733 127.99 24.024C128.139 23.8747 128.331 23.8 128.566 23.8C128.779 23.8 128.96 23.8747 129.11 24.024C129.27 24.1733 129.35 24.3547 129.35 24.568V33.512H133.942ZM142.898 33.528C143.122 33.528 143.304 33.6027 143.442 33.752C143.592 33.9013 143.666 34.0773 143.666 34.28C143.666 34.4933 143.592 34.6693 143.442 34.808C143.304 34.936 143.122 35 142.898 35H137.33C137.117 35 136.936 34.9253 136.786 34.776C136.637 34.6267 136.562 34.4453 136.562 34.232V24.568C136.562 24.3547 136.637 24.1733 136.786 24.024C136.936 23.8747 137.117 23.8 137.33 23.8H142.898C143.122 23.8 143.304 23.8693 143.442 24.008C143.592 24.1467 143.666 24.328 143.666 24.552C143.666 24.7653 143.592 24.9413 143.442 25.08C143.304 25.208 143.122 25.272 142.898 25.272H138.146V28.536H142.178C142.402 28.536 142.584 28.6053 142.722 28.744C142.872 28.8827 142.946 29.0587 142.946 29.272C142.946 29.496 142.872 29.672 142.722 29.8C142.584 29.928 142.402 29.992 142.178 29.992H138.146V33.528H142.898Z" fill="#2C3832"/>
</svg>
