<svg width="167" height="58" viewBox="0 0 167 58" fill="none" xmlns="http://www.w3.org/2000/svg">
<rect width="167" height="58" rx="10" fill="#D9D9D9"/>
<path d="M50.032 23.8C51.0347 23.8 51.8933 24.0507 52.608 24.552C53.3227 25.0533 53.8613 25.7307 54.224 26.584C54.5867 27.4267 54.768 28.3653 54.768 29.4C54.768 30.4453 54.5867 31.3947 54.224 32.248C53.8613 33.0907 53.3227 33.7627 52.608 34.264C51.8933 34.7547 51.0347 35 50.032 35H46.096C45.8827 35 45.7013 34.9253 45.552 34.776C45.4027 34.6267 45.328 34.4453 45.328 34.232V24.568C45.328 24.3547 45.4027 24.1733 45.552 24.024C45.7013 23.8747 45.8827 23.8 46.096 23.8H50.032ZM49.872 33.528C50.96 33.528 51.776 33.144 52.32 32.376C52.864 31.5973 53.136 30.6053 53.136 29.4C53.136 28.2053 52.8587 27.2187 52.304 26.44C51.76 25.6613 50.9493 25.272 49.872 25.272H46.912V33.528H49.872ZM63.1328 33.528C63.3568 33.528 63.5381 33.6027 63.6768 33.752C63.8261 33.9013 63.9008 34.0773 63.9008 34.28C63.9008 34.4933 63.8261 34.6693 63.6768 34.808C63.5381 34.936 63.3568 35 63.1328 35H57.5648C57.3514 35 57.1701 34.9253 57.0208 34.776C56.8714 34.6267 56.7968 34.4453 56.7968 34.232V24.568C56.7968 24.3547 56.8714 24.1733 57.0208 24.024C57.1701 23.8747 57.3514 23.8 57.5648 23.8H63.1328C63.3568 23.8 63.5381 23.8693 63.6768 24.008C63.8261 24.1467 63.9008 24.328 63.9008 24.552C63.9008 24.7653 63.8261 24.9413 63.6768 25.08C63.5381 25.208 63.3568 25.272 63.1328 25.272H58.3808V28.536H62.4128C62.6368 28.536 62.8181 28.6053 62.9568 28.744C63.1061 28.8827 63.1808 29.0587 63.1808 29.272C63.1808 29.496 63.1061 29.672 62.9568 29.8C62.8181 29.928 62.6368 29.992 62.4128 29.992H58.3808V33.528H63.1328ZM69.3138 35.16C68.5351 35.16 67.8471 35.0533 67.2498 34.84C66.6524 34.616 66.0818 34.2587 65.5378 33.768C65.3138 33.576 65.2018 33.3573 65.2018 33.112C65.2018 32.92 65.2764 32.7493 65.4258 32.6C65.5751 32.44 65.7511 32.36 65.9538 32.36C66.1351 32.36 66.2898 32.4187 66.4178 32.536C66.8444 32.9307 67.2818 33.224 67.7298 33.416C68.1884 33.5973 68.7058 33.688 69.2818 33.688C69.9538 33.688 70.5191 33.5333 70.9778 33.224C71.4471 32.9147 71.6818 32.5253 71.6818 32.056C71.6711 31.5013 71.4364 31.0747 70.9778 30.776C70.5298 30.4667 69.8418 30.2107 68.9138 30.008C67.8151 29.784 66.9671 29.416 66.3698 28.904C65.7831 28.392 65.4898 27.6827 65.4898 26.776C65.4898 26.1467 65.6551 25.5973 65.9858 25.128C66.3164 24.648 66.7751 24.28 67.3618 24.024C67.9484 23.768 68.6098 23.64 69.3458 23.64C70.0071 23.64 70.6311 23.7467 71.2178 23.96C71.8044 24.1733 72.2791 24.456 72.6418 24.808C72.8871 25.0213 73.0098 25.2507 73.0098 25.496C73.0098 25.688 72.9351 25.8587 72.7858 26.008C72.6471 26.1573 72.4764 26.232 72.2738 26.232C72.1244 26.232 72.0018 26.1893 71.9058 26.104C71.6284 25.8267 71.2444 25.592 70.7538 25.4C70.2631 25.208 69.7938 25.112 69.3458 25.112C68.6311 25.112 68.0604 25.2613 67.6338 25.56C67.2178 25.848 67.0098 26.232 67.0098 26.712C67.0098 27.2347 67.2178 27.6347 67.6338 27.912C68.0604 28.1893 68.6898 28.424 69.5218 28.616C70.3538 28.7973 71.0311 29.0107 71.5538 29.256C72.0871 29.5013 72.4978 29.8427 72.7858 30.28C73.0738 30.7173 73.2178 31.288 73.2178 31.992C73.2178 32.6107 73.0418 33.16 72.6898 33.64C72.3484 34.12 71.8791 34.4933 71.2818 34.76C70.6844 35.0267 70.0284 35.16 69.3138 35.16ZM78.6263 35.16C77.8476 35.16 77.1596 35.0533 76.5623 34.84C75.9649 34.616 75.3943 34.2587 74.8503 33.768C74.6263 33.576 74.5143 33.3573 74.5143 33.112C74.5143 32.92 74.5889 32.7493 74.7383 32.6C74.8876 32.44 75.0636 32.36 75.2663 32.36C75.4476 32.36 75.6023 32.4187 75.7303 32.536C76.1569 32.9307 76.5943 33.224 77.0423 33.416C77.5009 33.5973 78.0183 33.688 78.5943 33.688C79.2663 33.688 79.8316 33.5333 80.2903 33.224C80.7596 32.9147 80.9943 32.5253 80.9943 32.056C80.9836 31.5013 80.7489 31.0747 80.2903 30.776C79.8423 30.4667 79.1543 30.2107 78.2263 30.008C77.1276 29.784 76.2796 29.416 75.6823 28.904C75.0956 28.392 74.8023 27.6827 74.8023 26.776C74.8023 26.1467 74.9676 25.5973 75.2983 25.128C75.6289 24.648 76.0876 24.28 76.6743 24.024C77.2609 23.768 77.9223 23.64 78.6583 23.64C79.3196 23.64 79.9436 23.7467 80.5303 23.96C81.1169 24.1733 81.5916 24.456 81.9543 24.808C82.1996 25.0213 82.3223 25.2507 82.3223 25.496C82.3223 25.688 82.2476 25.8587 82.0983 26.008C81.9596 26.1573 81.7889 26.232 81.5863 26.232C81.4369 26.232 81.3143 26.1893 81.2183 26.104C80.9409 25.8267 80.5569 25.592 80.0663 25.4C79.5756 25.208 79.1063 25.112 78.6583 25.112C77.9436 25.112 77.3729 25.2613 76.9463 25.56C76.5303 25.848 76.3223 26.232 76.3223 26.712C76.3223 27.2347 76.5303 27.6347 76.9463 27.912C77.3729 28.1893 78.0023 28.424 78.8343 28.616C79.6663 28.7973 80.3436 29.0107 80.8663 29.256C81.3996 29.5013 81.8103 29.8427 82.0983 30.28C82.3863 30.7173 82.5303 31.288 82.5303 31.992C82.5303 32.6107 82.3543 33.16 82.0023 33.64C81.6609 34.12 81.1916 34.4933 80.5943 34.76C79.9969 35.0267 79.3409 35.16 78.6263 35.16ZM90.8828 33.528C91.1068 33.528 91.2881 33.6027 91.4268 33.752C91.5761 33.9013 91.6508 34.0773 91.6508 34.28C91.6508 34.4933 91.5761 34.6693 91.4268 34.808C91.2881 34.936 91.1068 35 90.8828 35H85.3148C85.1014 35 84.9201 34.9253 84.7708 34.776C84.6214 34.6267 84.5468 34.4453 84.5468 34.232V24.568C84.5468 24.3547 84.6214 24.1733 84.7708 24.024C84.9201 23.8747 85.1014 23.8 85.3148 23.8H90.8828C91.1068 23.8 91.2881 23.8693 91.4268 24.008C91.5761 24.1467 91.6508 24.328 91.6508 24.552C91.6508 24.7653 91.5761 24.9413 91.4268 25.08C91.2881 25.208 91.1068 25.272 90.8828 25.272H86.1308V28.536H90.1628C90.3868 28.536 90.5681 28.6053 90.7068 28.744C90.8561 28.8827 90.9308 29.0587 90.9308 29.272C90.9308 29.496 90.8561 29.672 90.7068 29.8C90.5681 29.928 90.3868 29.992 90.1628 29.992H86.1308V33.528H90.8828ZM102.2 33.72C102.306 33.7947 102.392 33.8907 102.456 34.008C102.52 34.1147 102.552 34.2267 102.552 34.344C102.552 34.568 102.477 34.7333 102.328 34.84C102.189 34.9467 102.018 35 101.816 35C101.613 35 101.442 34.9573 101.304 34.872C100.984 34.6907 100.722 34.3973 100.52 33.992C100.317 33.5867 100.216 32.9893 100.216 32.2C100.216 31.6667 100.056 31.272 99.7358 31.016C99.4158 30.76 98.9998 30.632 98.4878 30.632H95.2558V34.232C95.2558 34.456 95.1918 34.6427 95.0638 34.792C94.9358 34.9307 94.7704 35 94.5678 35C94.3224 35 94.1091 34.9253 93.9278 34.776C93.7571 34.6267 93.6718 34.4453 93.6718 34.232V24.568C93.6718 24.3547 93.7464 24.1733 93.8958 24.024C94.0451 23.8747 94.2264 23.8 94.4398 23.8H98.9358C99.5118 23.8 100.04 23.944 100.52 24.232C101 24.5093 101.384 24.8987 101.672 25.4C101.96 25.8907 102.104 26.4453 102.104 27.064C102.104 27.6613 101.944 28.2213 101.624 28.744C101.304 29.256 100.893 29.64 100.392 29.896C100.786 30.0987 101.096 30.3813 101.32 30.744C101.554 31.1067 101.682 31.528 101.704 32.008C101.746 32.616 101.794 33.032 101.848 33.256C101.901 33.4693 102.018 33.624 102.2 33.72ZM98.9038 29.304C99.1704 29.2827 99.4211 29.176 99.6558 28.984C99.9011 28.792 100.098 28.536 100.248 28.216C100.397 27.8853 100.472 27.5173 100.472 27.112C100.472 26.6 100.312 26.168 99.9918 25.816C99.6824 25.4533 99.3038 25.272 98.8558 25.272H95.2558V29.304H98.9038ZM111.576 23.8C111.8 23.8 111.982 23.8693 112.12 24.008C112.27 24.136 112.344 24.312 112.344 24.536C112.344 24.76 112.27 24.936 112.12 25.064C111.982 25.192 111.8 25.256 111.576 25.256H108.728V34.232C108.728 34.4453 108.648 34.6267 108.488 34.776C108.339 34.9253 108.147 35 107.912 35C107.678 35 107.48 34.9253 107.32 34.776C107.171 34.6267 107.096 34.4453 107.096 34.232V25.256H104.264C104.04 25.256 103.854 25.192 103.704 25.064C103.566 24.9253 103.496 24.744 103.496 24.52C103.496 24.3067 103.566 24.136 103.704 24.008C103.854 23.8693 104.04 23.8 104.264 23.8H111.576ZM117.579 35.16C116.801 35.16 116.113 35.0533 115.515 34.84C114.918 34.616 114.347 34.2587 113.803 33.768C113.579 33.576 113.467 33.3573 113.467 33.112C113.467 32.92 113.542 32.7493 113.691 32.6C113.841 32.44 114.017 32.36 114.219 32.36C114.401 32.36 114.555 32.4187 114.683 32.536C115.11 32.9307 115.547 33.224 115.995 33.416C116.454 33.5973 116.971 33.688 117.547 33.688C118.219 33.688 118.785 33.5333 119.243 33.224C119.713 32.9147 119.947 32.5253 119.947 32.056C119.937 31.5013 119.702 31.0747 119.243 30.776C118.795 30.4667 118.107 30.2107 117.179 30.008C116.081 29.784 115.233 29.416 114.635 28.904C114.049 28.392 113.755 27.6827 113.755 26.776C113.755 26.1467 113.921 25.5973 114.251 25.128C114.582 24.648 115.041 24.28 115.627 24.024C116.214 23.768 116.875 23.64 117.611 23.64C118.273 23.64 118.897 23.7467 119.483 23.96C120.07 24.1733 120.545 24.456 120.907 24.808C121.153 25.0213 121.275 25.2507 121.275 25.496C121.275 25.688 121.201 25.8587 121.051 26.008C120.913 26.1573 120.742 26.232 120.539 26.232C120.39 26.232 120.267 26.1893 120.171 26.104C119.894 25.8267 119.51 25.592 119.019 25.4C118.529 25.208 118.059 25.112 117.611 25.112C116.897 25.112 116.326 25.2613 115.899 25.56C115.483 25.848 115.275 26.232 115.275 26.712C115.275 27.2347 115.483 27.6347 115.899 27.912C116.326 28.1893 116.955 28.424 117.787 28.616C118.619 28.7973 119.297 29.0107 119.819 29.256C120.353 29.5013 120.763 29.8427 121.051 30.28C121.339 30.7173 121.483 31.288 121.483 31.992C121.483 32.6107 121.307 33.16 120.955 33.64C120.614 34.12 120.145 34.4933 119.547 34.76C118.95 35.0267 118.294 35.16 117.579 35.16Z" fill="#A9A9A9"/>
</svg>
