<svg width="147" height="58" viewBox="0 0 147 58" fill="none" xmlns="http://www.w3.org/2000/svg">
<rect width="147" height="58" rx="10" fill="#D9D9D9"/>
<path d="M50.032 23.8C51.0347 23.8 51.8933 24.0507 52.608 24.552C53.3227 25.0533 53.8613 25.7307 54.224 26.584C54.5867 27.4267 54.768 28.3653 54.768 29.4C54.768 30.4453 54.5867 31.3947 54.224 32.248C53.8613 33.0907 53.3227 33.7627 52.608 34.264C51.8933 34.7547 51.0347 35 50.032 35H46.096C45.8827 35 45.7013 34.9253 45.552 34.776C45.4027 34.6267 45.328 34.4453 45.328 34.232V24.568C45.328 24.3547 45.4027 24.1733 45.552 24.024C45.7013 23.8747 45.8827 23.8 46.096 23.8H50.032ZM49.872 33.528C50.96 33.528 51.776 33.144 52.32 32.376C52.864 31.5973 53.136 30.6053 53.136 29.4C53.136 28.2053 52.8587 27.2187 52.304 26.44C51.76 25.6613 50.9493 25.272 49.872 25.272H46.912V33.528H49.872ZM65.3248 33.72C65.4314 33.7947 65.5168 33.8907 65.5808 34.008C65.6448 34.1147 65.6768 34.2267 65.6768 34.344C65.6768 34.568 65.6021 34.7333 65.4528 34.84C65.3141 34.9467 65.1434 35 64.9408 35C64.7381 35 64.5674 34.9573 64.4288 34.872C64.1088 34.6907 63.8474 34.3973 63.6448 33.992C63.4421 33.5867 63.3408 32.9893 63.3408 32.2C63.3408 31.6667 63.1808 31.272 62.8608 31.016C62.5408 30.76 62.1248 30.632 61.6128 30.632H58.3808V34.232C58.3808 34.456 58.3168 34.6427 58.1888 34.792C58.0608 34.9307 57.8954 35 57.6928 35C57.4474 35 57.2341 34.9253 57.0528 34.776C56.8821 34.6267 56.7968 34.4453 56.7968 34.232V24.568C56.7968 24.3547 56.8714 24.1733 57.0208 24.024C57.1701 23.8747 57.3514 23.8 57.5648 23.8H62.0608C62.6368 23.8 63.1648 23.944 63.6448 24.232C64.1248 24.5093 64.5088 24.8987 64.7968 25.4C65.0848 25.8907 65.2288 26.4453 65.2288 27.064C65.2288 27.6613 65.0688 28.2213 64.7488 28.744C64.4288 29.256 64.0181 29.64 63.5168 29.896C63.9114 30.0987 64.2208 30.3813 64.4448 30.744C64.6794 31.1067 64.8074 31.528 64.8288 32.008C64.8714 32.616 64.9194 33.032 64.9728 33.256C65.0261 33.4693 65.1434 33.624 65.3248 33.72ZM62.0288 29.304C62.2954 29.2827 62.5461 29.176 62.7808 28.984C63.0261 28.792 63.2234 28.536 63.3728 28.216C63.5221 27.8853 63.5968 27.5173 63.5968 27.112C63.5968 26.6 63.4368 26.168 63.1168 25.816C62.8074 25.4533 62.4288 25.272 61.9808 25.272H58.3808V29.304H62.0288ZM69.2558 34.216C69.2558 34.44 69.1758 34.6267 69.0158 34.776C68.8558 34.9253 68.6691 35 68.4557 35C68.2211 35 68.0291 34.9253 67.8798 34.776C67.7411 34.6267 67.6718 34.44 67.6718 34.216V24.568C67.6718 24.3547 67.7464 24.1733 67.8958 24.024C68.0451 23.8747 68.2371 23.8 68.4718 23.8C68.6851 23.8 68.8664 23.8747 69.0158 24.024C69.1758 24.1733 69.2558 24.3547 69.2558 24.568V34.216ZM80.2741 23.8C80.4768 23.8 80.6421 23.8693 80.7701 24.008C80.8981 24.136 80.9621 24.3013 80.9621 24.504V34.216C80.9621 34.44 80.8875 34.6267 80.7381 34.776C80.5995 34.9253 80.4181 35 80.1941 35C80.0768 35 79.9595 34.984 79.8421 34.952C79.7355 34.9093 79.6501 34.8507 79.5861 34.776L73.2981 26.584V34.296C73.2981 34.4987 73.2288 34.6693 73.0901 34.808C72.9621 34.936 72.7968 35 72.5941 35C72.3915 35 72.2261 34.936 72.0981 34.808C71.9701 34.6693 71.9061 34.4987 71.9061 34.296V24.568C71.9061 24.344 71.9755 24.1627 72.1141 24.024C72.2635 23.8747 72.4448 23.8 72.6581 23.8C72.7861 23.8 72.9088 23.8267 73.0261 23.88C73.1435 23.9227 73.2341 23.9867 73.2981 24.072L79.5701 32.28V24.504C79.5701 24.3013 79.6341 24.136 79.7621 24.008C79.9008 23.8693 80.0715 23.8 80.2741 23.8ZM92.1369 33.704C92.2542 33.8533 92.3129 34.0293 92.3129 34.232C92.3129 34.4667 92.2222 34.6587 92.0409 34.808C91.8702 34.9573 91.6729 35.032 91.4489 35.032C91.2355 35.032 91.0489 34.936 90.8889 34.744L87.0009 29.736L85.2089 31.432V34.216C85.2089 34.44 85.1342 34.6267 84.9849 34.776C84.8355 34.9253 84.6435 35 84.4089 35C84.1742 35 83.9822 34.9253 83.8329 34.776C83.6942 34.6267 83.6249 34.44 83.6249 34.216V24.568C83.6249 24.3547 83.6995 24.1733 83.8489 24.024C83.9982 23.8747 84.1902 23.8 84.4249 23.8C84.6595 23.8 84.8462 23.8747 84.9849 24.024C85.1342 24.1627 85.2089 24.344 85.2089 24.568V29.544L90.8889 24.04C91.0915 23.8587 91.2942 23.768 91.4969 23.768C91.6889 23.768 91.8542 23.848 91.9929 24.008C92.1315 24.168 92.2009 24.3387 92.2009 24.52C92.2009 24.68 92.1262 24.8453 91.9769 25.016L88.1849 28.6L92.1369 33.704ZM97.47 35.16C96.6913 35.16 96.0033 35.0533 95.406 34.84C94.8087 34.616 94.238 34.2587 93.694 33.768C93.47 33.576 93.358 33.3573 93.358 33.112C93.358 32.92 93.4327 32.7493 93.582 32.6C93.7313 32.44 93.9073 32.36 94.11 32.36C94.2913 32.36 94.446 32.4187 94.574 32.536C95.0007 32.9307 95.438 33.224 95.886 33.416C96.3447 33.5973 96.862 33.688 97.438 33.688C98.11 33.688 98.6753 33.5333 99.134 33.224C99.6033 32.9147 99.838 32.5253 99.838 32.056C99.8273 31.5013 99.5927 31.0747 99.134 30.776C98.686 30.4667 97.998 30.2107 97.07 30.008C95.9713 29.784 95.1233 29.416 94.526 28.904C93.9393 28.392 93.646 27.6827 93.646 26.776C93.646 26.1467 93.8113 25.5973 94.142 25.128C94.4727 24.648 94.9313 24.28 95.518 24.024C96.1047 23.768 96.766 23.64 97.502 23.64C98.1633 23.64 98.7873 23.7467 99.374 23.96C99.9607 24.1733 100.435 24.456 100.798 24.808C101.043 25.0213 101.166 25.2507 101.166 25.496C101.166 25.688 101.091 25.8587 100.942 26.008C100.803 26.1573 100.633 26.232 100.43 26.232C100.281 26.232 100.158 26.1893 100.062 26.104C99.7847 25.8267 99.4007 25.592 98.91 25.4C98.4193 25.208 97.95 25.112 97.502 25.112C96.7873 25.112 96.2167 25.2613 95.79 25.56C95.374 25.848 95.166 26.232 95.166 26.712C95.166 27.2347 95.374 27.6347 95.79 27.912C96.2167 28.1893 96.846 28.424 97.678 28.616C98.51 28.7973 99.1873 29.0107 99.71 29.256C100.243 29.5013 100.654 29.8427 100.942 30.28C101.23 30.7173 101.374 31.288 101.374 31.992C101.374 32.6107 101.198 33.16 100.846 33.64C100.505 34.12 100.035 34.4933 99.438 34.76C98.8407 35.0267 98.1847 35.16 97.47 35.16Z" fill="#A9A9A9"/>
</svg>
