<svg width="195" height="58" viewBox="0 0 195 58" fill="none" xmlns="http://www.w3.org/2000/svg">
<rect width="195" height="58" rx="10" fill="#D9D9D9"/>
<path d="M55.056 23.784C55.2693 23.7947 55.4507 23.8747 55.6 24.024C55.7493 24.1627 55.824 24.3387 55.824 24.552V34.232C55.824 34.4453 55.7493 34.6267 55.6 34.776C55.4613 34.9253 55.2747 35 55.04 35C54.8053 35 54.6133 34.9307 54.464 34.792C54.3147 34.6427 54.24 34.456 54.24 34.232V26.824L51.136 31.528C51.0613 31.624 50.9653 31.704 50.848 31.768C50.7413 31.832 50.6293 31.8587 50.512 31.848C50.4053 31.8587 50.2933 31.832 50.176 31.768C50.0693 31.704 49.9787 31.624 49.904 31.528L46.784 26.68V34.232C46.784 34.456 46.7147 34.6427 46.576 34.792C46.448 34.9307 46.272 35 46.048 35C45.8347 35 45.6587 34.9307 45.52 34.792C45.392 34.6427 45.328 34.456 45.328 34.232V24.552C45.328 24.3493 45.4027 24.1733 45.552 24.024C45.7013 23.864 45.888 23.784 46.112 23.784C46.24 23.784 46.3627 23.816 46.48 23.88C46.608 23.944 46.7093 24.0293 46.784 24.136L50.576 29.88L54.416 24.136C54.5867 23.9013 54.8 23.784 55.056 23.784ZM67.0923 34.008C67.1243 34.104 67.1403 34.2053 67.1403 34.312C67.1403 34.5253 67.0656 34.7013 66.9163 34.84C66.7776 34.9787 66.6123 35.048 66.4203 35.048C66.2709 35.048 66.1323 35.0053 66.0043 34.92C65.8869 34.824 65.7909 34.696 65.7163 34.536L64.7243 32.184H59.7803L58.8043 34.552C58.7509 34.712 58.6603 34.8347 58.5323 34.92C58.4149 35.0053 58.2816 35.048 58.1323 35.048C57.9083 35.048 57.7376 34.9893 57.6203 34.872C57.5029 34.7547 57.4443 34.5947 57.4443 34.392C57.4443 34.3493 57.4549 34.264 57.4763 34.136L61.5563 24.248C61.6309 24.0773 61.7323 23.9493 61.8602 23.864C61.9989 23.768 62.1536 23.7307 62.3243 23.752C62.4843 23.752 62.6283 23.7947 62.7563 23.88C62.8843 23.9653 62.9749 24.088 63.0283 24.248L67.0923 34.008ZM60.3883 30.728H64.1163L62.2443 26.248L60.3883 30.728ZM70.3339 34.216C70.3339 34.44 70.2539 34.6267 70.0939 34.776C69.9339 34.9253 69.7472 35 69.5339 35C69.2992 35 69.1072 34.9253 68.9579 34.776C68.8192 34.6267 68.7499 34.44 68.7499 34.216V24.568C68.7499 24.3547 68.8245 24.1733 68.9739 24.024C69.1232 23.8747 69.3152 23.8 69.5499 23.8C69.7632 23.8 69.9445 23.8747 70.0939 24.024C70.2539 24.1733 70.3339 24.3547 70.3339 24.568V34.216ZM81.3523 23.8C81.5549 23.8 81.7203 23.8693 81.8483 24.008C81.9763 24.136 82.0403 24.3013 82.0403 24.504V34.216C82.0403 34.44 81.9656 34.6267 81.8163 34.776C81.6776 34.9253 81.4963 35 81.2723 35C81.1549 35 81.0376 34.984 80.9203 34.952C80.8136 34.9093 80.7283 34.8507 80.6643 34.776L74.3763 26.584V34.296C74.3763 34.4987 74.3069 34.6693 74.1683 34.808C74.0403 34.936 73.8749 35 73.6723 35C73.4696 35 73.3043 34.936 73.1763 34.808C73.0483 34.6693 72.9843 34.4987 72.9843 34.296V24.568C72.9843 24.344 73.0536 24.1627 73.1923 24.024C73.3416 23.8747 73.5229 23.8 73.7363 23.8C73.8643 23.8 73.9869 23.8267 74.1043 23.88C74.2216 23.9227 74.3123 23.9867 74.3763 24.072L80.6483 32.28V24.504C80.6483 24.3013 80.7123 24.136 80.8403 24.008C80.9789 23.8693 81.1496 23.8 81.3523 23.8ZM97.1245 24.456C97.3805 24.5947 97.5085 24.808 97.5085 25.096C97.5085 25.288 97.4445 25.464 97.3165 25.624C97.1885 25.7947 97.0125 25.88 96.7885 25.88C96.6392 25.88 96.4952 25.8427 96.3565 25.768C95.6952 25.3947 94.9805 25.208 94.2125 25.208C93.4125 25.208 92.7032 25.384 92.0845 25.736C91.4765 26.088 91.0018 26.584 90.6605 27.224C90.3192 27.8533 90.1485 28.5787 90.1485 29.4C90.1485 30.2853 90.3245 31.048 90.6765 31.688C91.0285 32.328 91.5138 32.8187 92.1325 33.16C92.7512 33.4907 93.4445 33.656 94.2125 33.656C95.0018 33.656 95.7165 33.464 96.3565 33.08C96.4845 33.016 96.6232 32.984 96.7725 32.984C97.0072 32.984 97.1938 33.0747 97.3325 33.256C97.4605 33.416 97.5245 33.5867 97.5245 33.768C97.5245 33.896 97.4872 34.0187 97.4125 34.136C97.3485 34.2427 97.2578 34.328 97.1405 34.392C96.7245 34.6267 96.2552 34.8133 95.7325 34.952C95.2205 35.0907 94.7138 35.16 94.2125 35.16C93.1778 35.16 92.2232 34.9307 91.3485 34.472C90.4845 34.0133 89.7912 33.3467 89.2685 32.472C88.7565 31.5973 88.5005 30.5733 88.5005 29.4C88.5005 28.3227 88.7458 27.352 89.2365 26.488C89.7378 25.6133 90.4205 24.9307 91.2845 24.44C92.1592 23.9387 93.1352 23.688 94.2125 23.688C95.2472 23.688 96.2178 23.944 97.1245 24.456ZM109.52 29.4C109.52 30.4773 109.285 31.4533 108.816 32.328C108.357 33.2027 107.717 33.896 106.896 34.408C106.074 34.9093 105.146 35.16 104.112 35.16C103.077 35.16 102.149 34.9093 101.328 34.408C100.506 33.896 99.861 33.2027 99.3916 32.328C98.933 31.4533 98.7036 30.4773 98.7036 29.4C98.7036 28.3227 98.933 27.3467 99.3916 26.472C99.861 25.5973 100.506 24.9093 101.328 24.408C102.149 23.896 103.077 23.64 104.112 23.64C105.146 23.64 106.074 23.896 106.896 24.408C107.717 24.9093 108.357 25.5973 108.816 26.472C109.285 27.3467 109.52 28.3227 109.52 29.4ZM107.872 29.4C107.872 28.6 107.712 27.88 107.392 27.24C107.072 26.5893 106.624 26.0827 106.048 25.72C105.482 25.3467 104.837 25.16 104.112 25.16C103.386 25.16 102.736 25.3413 102.16 25.704C101.594 26.0667 101.152 26.5733 100.832 27.224C100.512 27.864 100.352 28.5893 100.352 29.4C100.352 30.2 100.512 30.9253 100.832 31.576C101.152 32.216 101.594 32.7227 102.16 33.096C102.736 33.4587 103.386 33.64 104.112 33.64C104.837 33.64 105.482 33.4587 106.048 33.096C106.624 32.7227 107.072 32.216 107.392 31.576C107.712 30.9253 107.872 30.2 107.872 29.4ZM119.467 23.784C119.691 23.784 119.867 23.8587 119.995 24.008C120.134 24.1467 120.203 24.328 120.203 24.552V30.696C120.203 31.5387 120.016 32.296 119.643 32.968C119.27 33.64 118.752 34.168 118.091 34.552C117.44 34.9253 116.704 35.112 115.883 35.112C115.051 35.112 114.304 34.9253 113.643 34.552C112.982 34.168 112.464 33.64 112.091 32.968C111.718 32.296 111.531 31.5387 111.531 30.696V24.552C111.531 24.328 111.606 24.1467 111.755 24.008C111.904 23.8587 112.096 23.784 112.331 23.784C112.534 23.784 112.71 23.8587 112.859 24.008C113.019 24.1573 113.099 24.3387 113.099 24.552V30.696C113.099 31.2507 113.227 31.752 113.483 32.2C113.739 32.6373 114.08 32.9787 114.507 33.224C114.934 33.4693 115.392 33.592 115.883 33.592C116.395 33.592 116.87 33.4693 117.307 33.224C117.744 32.9787 118.091 32.6373 118.347 32.2C118.614 31.752 118.747 31.2507 118.747 30.696V24.552C118.747 24.328 118.811 24.1467 118.939 24.008C119.067 23.8587 119.243 23.784 119.467 23.784ZM131.387 33.72C131.494 33.7947 131.579 33.8907 131.643 34.008C131.707 34.1147 131.739 34.2267 131.739 34.344C131.739 34.568 131.665 34.7333 131.515 34.84C131.377 34.9467 131.206 35 131.003 35C130.801 35 130.63 34.9573 130.491 34.872C130.171 34.6907 129.91 34.3973 129.707 33.992C129.505 33.5867 129.403 32.9893 129.403 32.2C129.403 31.6667 129.243 31.272 128.923 31.016C128.603 30.76 128.187 30.632 127.675 30.632H124.443V34.232C124.443 34.456 124.379 34.6427 124.251 34.792C124.123 34.9307 123.958 35 123.755 35C123.51 35 123.297 34.9253 123.115 34.776C122.945 34.6267 122.859 34.4453 122.859 34.232V24.568C122.859 24.3547 122.934 24.1733 123.083 24.024C123.233 23.8747 123.414 23.8 123.627 23.8H128.123C128.699 23.8 129.227 23.944 129.707 24.232C130.187 24.5093 130.571 24.8987 130.859 25.4C131.147 25.8907 131.291 26.4453 131.291 27.064C131.291 27.6613 131.131 28.2213 130.811 28.744C130.491 29.256 130.081 29.64 129.579 29.896C129.974 30.0987 130.283 30.3813 130.507 30.744C130.742 31.1067 130.87 31.528 130.891 32.008C130.934 32.616 130.982 33.032 131.035 33.256C131.089 33.4693 131.206 33.624 131.387 33.72ZM128.091 29.304C128.358 29.2827 128.609 29.176 128.843 28.984C129.089 28.792 129.286 28.536 129.435 28.216C129.585 27.8853 129.659 27.5173 129.659 27.112C129.659 26.6 129.499 26.168 129.179 25.816C128.87 25.4533 128.491 25.272 128.043 25.272H124.443V29.304H128.091ZM137.126 35.16C136.348 35.16 135.66 35.0533 135.062 34.84C134.465 34.616 133.894 34.2587 133.35 33.768C133.126 33.576 133.014 33.3573 133.014 33.112C133.014 32.92 133.089 32.7493 133.238 32.6C133.388 32.44 133.564 32.36 133.766 32.36C133.948 32.36 134.102 32.4187 134.23 32.536C134.657 32.9307 135.094 33.224 135.542 33.416C136.001 33.5973 136.518 33.688 137.094 33.688C137.766 33.688 138.332 33.5333 138.79 33.224C139.26 32.9147 139.494 32.5253 139.494 32.056C139.484 31.5013 139.249 31.0747 138.79 30.776C138.342 30.4667 137.654 30.2107 136.726 30.008C135.628 29.784 134.78 29.416 134.182 28.904C133.596 28.392 133.302 27.6827 133.302 26.776C133.302 26.1467 133.468 25.5973 133.798 25.128C134.129 24.648 134.588 24.28 135.174 24.024C135.761 23.768 136.422 23.64 137.158 23.64C137.82 23.64 138.444 23.7467 139.03 23.96C139.617 24.1733 140.092 24.456 140.454 24.808C140.7 25.0213 140.822 25.2507 140.822 25.496C140.822 25.688 140.748 25.8587 140.598 26.008C140.46 26.1573 140.289 26.232 140.086 26.232C139.937 26.232 139.814 26.1893 139.718 26.104C139.441 25.8267 139.057 25.592 138.566 25.4C138.076 25.208 137.606 25.112 137.158 25.112C136.444 25.112 135.873 25.2613 135.446 25.56C135.03 25.848 134.822 26.232 134.822 26.712C134.822 27.2347 135.03 27.6347 135.446 27.912C135.873 28.1893 136.502 28.424 137.334 28.616C138.166 28.7973 138.844 29.0107 139.366 29.256C139.9 29.5013 140.31 29.8427 140.598 30.28C140.886 30.7173 141.03 31.288 141.03 31.992C141.03 32.6107 140.854 33.16 140.502 33.64C140.161 34.12 139.692 34.4933 139.094 34.76C138.497 35.0267 137.841 35.16 137.126 35.16ZM149.383 33.528C149.607 33.528 149.788 33.6027 149.927 33.752C150.076 33.9013 150.151 34.0773 150.151 34.28C150.151 34.4933 150.076 34.6693 149.927 34.808C149.788 34.936 149.607 35 149.383 35H143.815C143.601 35 143.42 34.9253 143.271 34.776C143.121 34.6267 143.047 34.4453 143.047 34.232V24.568C143.047 24.3547 143.121 24.1733 143.271 24.024C143.42 23.8747 143.601 23.8 143.815 23.8H149.383C149.607 23.8 149.788 23.8693 149.927 24.008C150.076 24.1467 150.151 24.328 150.151 24.552C150.151 24.7653 150.076 24.9413 149.927 25.08C149.788 25.208 149.607 25.272 149.383 25.272H144.631V28.536H148.663C148.887 28.536 149.068 28.6053 149.207 28.744C149.356 28.8827 149.431 29.0587 149.431 29.272C149.431 29.496 149.356 29.672 149.207 29.8C149.068 29.928 148.887 29.992 148.663 29.992H144.631V33.528H149.383Z" fill="#A9A9A9"/>
</svg>
