<svg width="357" height="58" viewBox="0 0 357 58" fill="none" xmlns="http://www.w3.org/2000/svg">
<rect width="357" height="58" rx="10" fill="#ECF3F5"/>
<path d="M29.245 35.15C28.525 35.15 27.885 35.03 27.325 34.79C26.775 34.55 26.24 34.175 25.72 33.665C25.6 33.565 25.54 33.445 25.54 33.305C25.54 33.185 25.585 33.075 25.675 32.975C25.775 32.875 25.885 32.825 26.005 32.825C26.125 32.825 26.235 32.875 26.335 32.975C27.115 33.835 28.09 34.265 29.26 34.265C29.98 34.265 30.575 34.095 31.045 33.755C31.525 33.415 31.765 32.97 31.765 32.42C31.765 31.99 31.645 31.635 31.405 31.355C31.175 31.065 30.87 30.83 30.49 30.65C30.11 30.47 29.625 30.285 29.035 30.095C28.395 29.905 27.855 29.695 27.415 29.465C26.985 29.235 26.635 28.93 26.365 28.55C26.095 28.16 25.96 27.67 25.96 27.08C25.96 26.55 26.1 26.08 26.38 25.67C26.67 25.26 27.07 24.94 27.58 24.71C28.1 24.47 28.695 24.35 29.365 24.35C29.975 24.35 30.545 24.455 31.075 24.665C31.615 24.865 32.045 25.155 32.365 25.535C32.515 25.705 32.59 25.85 32.59 25.97C32.59 26.08 32.54 26.185 32.44 26.285C32.34 26.375 32.23 26.42 32.11 26.42C32.01 26.42 31.925 26.385 31.855 26.315C31.585 25.995 31.225 25.735 30.775 25.535C30.325 25.335 29.855 25.235 29.365 25.235C28.635 25.235 28.04 25.4 27.58 25.73C27.12 26.05 26.89 26.49 26.89 27.05C26.89 27.63 27.11 28.075 27.55 28.385C27.99 28.695 28.62 28.98 29.44 29.24C30.15 29.45 30.73 29.665 31.18 29.885C31.63 30.105 31.995 30.42 32.275 30.83C32.565 31.23 32.71 31.76 32.71 32.42C32.71 32.93 32.56 33.395 32.26 33.815C31.97 34.225 31.56 34.55 31.03 34.79C30.51 35.03 29.915 35.15 29.245 35.15ZM41.0879 30.725C41.0879 30.845 41.0429 30.95 40.9529 31.04C40.8629 31.12 40.7579 31.16 40.6379 31.16H34.9679C34.9679 31.76 35.0879 32.3 35.3279 32.78C35.5779 33.25 35.9279 33.625 36.3779 33.905C36.8379 34.175 37.3779 34.31 37.9979 34.31C38.4779 34.31 38.9079 34.21 39.2879 34.01C39.6679 33.81 39.9729 33.555 40.2029 33.245C40.3129 33.155 40.4179 33.11 40.5179 33.11C40.6179 33.11 40.7079 33.15 40.7879 33.23C40.8679 33.31 40.9079 33.4 40.9079 33.5C40.9079 33.61 40.8579 33.715 40.7579 33.815C40.4379 34.205 40.0329 34.525 39.5429 34.775C39.0629 35.025 38.5529 35.15 38.0129 35.15C37.2429 35.15 36.5629 34.985 35.9729 34.655C35.3829 34.325 34.9229 33.865 34.5929 33.275C34.2629 32.675 34.0979 31.985 34.0979 31.205C34.0979 30.385 34.2579 29.67 34.5779 29.06C34.9079 28.44 35.3429 27.97 35.8829 27.65C36.4229 27.32 36.9979 27.155 37.6079 27.155C38.2079 27.155 38.7679 27.295 39.2879 27.575C39.8179 27.855 40.2479 28.265 40.5779 28.805C40.9079 29.345 41.0779 29.985 41.0879 30.725ZM37.6079 28.025C37.0279 28.025 36.4879 28.225 35.9879 28.625C35.4979 29.025 35.1829 29.6 35.0429 30.35H40.1579V30.23C40.1079 29.78 39.9579 29.39 39.7079 29.06C39.4579 28.72 39.1429 28.465 38.7629 28.295C38.3929 28.115 38.0079 28.025 37.6079 28.025ZM49.2264 27.335C49.3564 27.335 49.4614 27.38 49.5414 27.47C49.6314 27.56 49.6764 27.67 49.6764 27.8V34.55C49.6764 34.68 49.6314 34.79 49.5414 34.88C49.4614 34.96 49.3564 35 49.2264 35C49.0964 35 48.9864 34.96 48.8964 34.88C48.8164 34.79 48.7764 34.68 48.7764 34.55V33.545C48.5264 33.995 48.1514 34.375 47.6514 34.685C47.1514 34.995 46.6064 35.15 46.0164 35.15C45.3464 35.15 44.7414 34.975 44.2014 34.625C43.6714 34.275 43.2514 33.795 42.9414 33.185C42.6414 32.575 42.4914 31.89 42.4914 31.13C42.4914 30.37 42.6464 29.69 42.9564 29.09C43.2664 28.48 43.6864 28.005 44.2164 27.665C44.7564 27.325 45.3514 27.155 46.0014 27.155C46.6014 27.155 47.1514 27.3 47.6514 27.59C48.1514 27.88 48.5264 28.26 48.7764 28.73V27.8C48.7764 27.67 48.8164 27.56 48.8964 27.47C48.9864 27.38 49.0964 27.335 49.2264 27.335ZM46.1064 34.31C46.6264 34.31 47.0914 34.175 47.5014 33.905C47.9214 33.625 48.2464 33.245 48.4764 32.765C48.7164 32.275 48.8364 31.73 48.8364 31.13C48.8364 30.55 48.7164 30.02 48.4764 29.54C48.2464 29.06 47.9214 28.685 47.5014 28.415C47.0914 28.135 46.6264 27.995 46.1064 27.995C45.5864 27.995 45.1164 28.13 44.6964 28.4C44.2864 28.67 43.9614 29.045 43.7214 29.525C43.4914 29.995 43.3764 30.53 43.3764 31.13C43.3764 31.73 43.4914 32.275 43.7214 32.765C43.9514 33.245 44.2714 33.625 44.6814 33.905C45.1014 34.175 45.5764 34.31 46.1064 34.31ZM55.6098 27.155C55.8098 27.155 55.9898 27.195 56.1498 27.275C56.3098 27.355 56.3898 27.475 56.3898 27.635C56.3898 27.775 56.3498 27.89 56.2698 27.98C56.1898 28.06 56.0948 28.1 55.9848 28.1C55.9348 28.1 55.8348 28.075 55.6848 28.025C55.5448 27.975 55.4098 27.95 55.2798 27.95C54.9098 27.95 54.5398 28.095 54.1698 28.385C53.8098 28.665 53.5098 29.03 53.2698 29.48C53.0398 29.93 52.9248 30.385 52.9248 30.845V34.55C52.9248 34.68 52.8798 34.79 52.7898 34.88C52.7098 34.96 52.6048 35 52.4748 35C52.3448 35 52.2348 34.96 52.1448 34.88C52.0648 34.79 52.0248 34.68 52.0248 34.55V27.83C52.0248 27.7 52.0648 27.595 52.1448 27.515C52.2348 27.425 52.3448 27.38 52.4748 27.38C52.6048 27.38 52.7098 27.425 52.7898 27.515C52.8798 27.595 52.9248 27.7 52.9248 27.83V29.15C53.1548 28.58 53.4998 28.11 53.9598 27.74C54.4298 27.36 54.9798 27.165 55.6098 27.155ZM60.7744 27.155C61.2444 27.155 61.6794 27.21 62.0794 27.32C62.4894 27.42 62.8144 27.56 63.0544 27.74C63.3044 27.92 63.4294 28.115 63.4294 28.325C63.4294 28.435 63.3894 28.535 63.3094 28.625C63.2394 28.715 63.1494 28.76 63.0394 28.76C62.9394 28.76 62.8544 28.74 62.7844 28.7C62.7244 28.66 62.6544 28.6 62.5744 28.52C62.4444 28.39 62.3194 28.295 62.1994 28.235C62.0494 28.165 61.8494 28.11 61.5994 28.07C61.3594 28.02 61.0994 27.995 60.8194 27.995C60.2694 27.995 59.7644 28.135 59.3044 28.415C58.8544 28.695 58.4994 29.075 58.2394 29.555C57.9794 30.035 57.8494 30.565 57.8494 31.145C57.8494 31.745 57.9744 32.285 58.2244 32.765C58.4744 33.245 58.8194 33.625 59.2594 33.905C59.7094 34.175 60.2194 34.31 60.7894 34.31C61.1494 34.31 61.4344 34.28 61.6444 34.22C61.8644 34.16 62.0794 34.075 62.2894 33.965C62.3594 33.925 62.4794 33.835 62.6494 33.695C62.7294 33.625 62.7994 33.575 62.8594 33.545C62.9194 33.505 62.9844 33.485 63.0544 33.485C63.1744 33.485 63.2694 33.525 63.3394 33.605C63.4094 33.675 63.4444 33.77 63.4444 33.89C63.4444 34.06 63.3244 34.245 63.0844 34.445C62.8444 34.635 62.5144 34.8 62.0944 34.94C61.6744 35.08 61.2094 35.15 60.6994 35.15C59.9694 35.15 59.3194 34.98 58.7494 34.64C58.1794 34.29 57.7344 33.81 57.4144 33.2C57.1044 32.59 56.9494 31.905 56.9494 31.145C56.9494 30.415 57.1094 29.75 57.4294 29.15C57.7494 28.54 58.1994 28.055 58.7794 27.695C59.3594 27.335 60.0244 27.155 60.7744 27.155ZM68.6595 27.275C69.5595 27.275 70.2295 27.56 70.6695 28.13C71.1095 28.69 71.3295 29.415 71.3295 30.305V34.55C71.3295 34.68 71.2845 34.79 71.1945 34.88C71.1145 34.96 71.0095 35 70.8795 35C70.7495 35 70.6395 34.96 70.5495 34.88C70.4695 34.79 70.4295 34.68 70.4295 34.55V30.305C70.4295 29.655 70.2745 29.13 69.9645 28.73C69.6545 28.32 69.1695 28.115 68.5095 28.115C68.0895 28.115 67.6895 28.215 67.3095 28.415C66.9395 28.615 66.6395 28.885 66.4095 29.225C66.1795 29.555 66.0645 29.915 66.0645 30.305V34.55C66.0645 34.68 66.0195 34.79 65.9295 34.88C65.8495 34.96 65.7445 35 65.6145 35C65.4845 35 65.3745 34.96 65.2845 34.88C65.2045 34.79 65.1645 34.68 65.1645 34.55V24.35C65.1645 24.22 65.2045 24.115 65.2845 24.035C65.3745 23.945 65.4845 23.9 65.6145 23.9C65.7445 23.9 65.8495 23.945 65.9295 24.035C66.0195 24.115 66.0645 24.22 66.0645 24.35V28.745C66.3345 28.315 66.7095 27.965 67.1895 27.695C67.6695 27.415 68.1595 27.275 68.6595 27.275ZM81.4364 27.275C82.0964 27.275 82.6964 27.445 83.2364 27.785C83.7764 28.115 84.1964 28.58 84.4964 29.18C84.8064 29.77 84.9614 30.435 84.9614 31.175C84.9614 31.925 84.8064 32.6 84.4964 33.2C84.1964 33.79 83.7764 34.255 83.2364 34.595C82.7064 34.935 82.1114 35.105 81.4514 35.105C80.8714 35.105 80.3364 34.97 79.8464 34.7C79.3664 34.42 78.9814 34.05 78.6914 33.59V37.55C78.6914 37.68 78.6464 37.785 78.5564 37.865C78.4764 37.955 78.3714 38 78.2414 38C78.1114 38 78.0014 37.955 77.9114 37.865C77.8314 37.785 77.7914 37.68 77.7914 37.55V27.77C77.7914 27.64 77.8314 27.53 77.9114 27.44C78.0014 27.35 78.1114 27.305 78.2414 27.305C78.3714 27.305 78.4764 27.35 78.5564 27.44C78.6464 27.53 78.6914 27.64 78.6914 27.77V28.79C78.9514 28.32 79.3264 27.95 79.8164 27.68C80.3064 27.41 80.8464 27.275 81.4364 27.275ZM81.3614 34.265C81.8814 34.265 82.3464 34.135 82.7564 33.875C83.1764 33.605 83.5014 33.235 83.7314 32.765C83.9714 32.295 84.0914 31.765 84.0914 31.175C84.0914 30.595 83.9714 30.075 83.7314 29.615C83.5014 29.145 83.1764 28.78 82.7564 28.52C82.3464 28.25 81.8814 28.115 81.3614 28.115C80.8314 28.115 80.3564 28.245 79.9364 28.505C79.5164 28.765 79.1914 29.13 78.9614 29.6C78.7314 30.06 78.6164 30.585 78.6164 31.175C78.6164 31.765 78.7314 32.295 78.9614 32.765C79.1914 33.235 79.5164 33.605 79.9364 33.875C80.3564 34.135 80.8314 34.265 81.3614 34.265ZM90.3999 27.155C90.5999 27.155 90.7799 27.195 90.9399 27.275C91.0999 27.355 91.1799 27.475 91.1799 27.635C91.1799 27.775 91.1399 27.89 91.0599 27.98C90.9799 28.06 90.8849 28.1 90.7749 28.1C90.7249 28.1 90.6249 28.075 90.4749 28.025C90.3349 27.975 90.1999 27.95 90.0699 27.95C89.6999 27.95 89.3299 28.095 88.9599 28.385C88.5999 28.665 88.2999 29.03 88.0599 29.48C87.8299 29.93 87.7149 30.385 87.7149 30.845V34.55C87.7149 34.68 87.6699 34.79 87.5799 34.88C87.4999 34.96 87.3949 35 87.2649 35C87.1349 35 87.0249 34.96 86.9349 34.88C86.8549 34.79 86.8149 34.68 86.8149 34.55V27.83C86.8149 27.7 86.8549 27.595 86.9349 27.515C87.0249 27.425 87.1349 27.38 87.2649 27.38C87.3949 27.38 87.4999 27.425 87.5799 27.515C87.6699 27.595 87.7149 27.7 87.7149 27.83V29.15C87.9449 28.58 88.2899 28.11 88.7499 27.74C89.2199 27.36 89.7699 27.165 90.3999 27.155ZM99.3295 31.16C99.3295 31.91 99.1645 32.59 98.8345 33.2C98.5045 33.81 98.0495 34.29 97.4695 34.64C96.8895 34.98 96.2445 35.15 95.5345 35.15C94.8245 35.15 94.1795 34.98 93.5995 34.64C93.0195 34.29 92.5645 33.81 92.2345 33.2C91.9045 32.59 91.7395 31.91 91.7395 31.16C91.7395 30.41 91.9045 29.73 92.2345 29.12C92.5645 28.51 93.0195 28.03 93.5995 27.68C94.1795 27.33 94.8245 27.155 95.5345 27.155C96.2445 27.155 96.8895 27.33 97.4695 27.68C98.0495 28.03 98.5045 28.51 98.8345 29.12C99.1645 29.73 99.3295 30.41 99.3295 31.16ZM98.4295 31.16C98.4295 30.56 98.3045 30.02 98.0545 29.54C97.8045 29.06 97.4545 28.685 97.0045 28.415C96.5645 28.135 96.0745 27.995 95.5345 27.995C94.9945 27.995 94.5045 28.135 94.0645 28.415C93.6245 28.685 93.2745 29.06 93.0145 29.54C92.7645 30.02 92.6395 30.56 92.6395 31.16C92.6395 31.75 92.7645 32.285 93.0145 32.765C93.2745 33.245 93.6245 33.625 94.0645 33.905C94.5045 34.175 94.9945 34.31 95.5345 34.31C96.0745 34.31 96.5645 34.175 97.0045 33.905C97.4545 33.635 97.8045 33.26 98.0545 32.78C98.3045 32.3 98.4295 31.76 98.4295 31.16ZM107.395 23.9C107.525 23.9 107.63 23.945 107.71 24.035C107.8 24.115 107.845 24.22 107.845 24.35V34.55C107.845 34.68 107.8 34.79 107.71 34.88C107.63 34.96 107.525 35 107.395 35C107.265 35 107.155 34.96 107.065 34.88C106.985 34.79 106.945 34.68 106.945 34.55V33.5C106.695 33.96 106.32 34.35 105.82 34.67C105.33 34.99 104.785 35.15 104.185 35.15C103.525 35.15 102.925 34.98 102.385 34.64C101.855 34.29 101.435 33.81 101.125 33.2C100.815 32.59 100.66 31.905 100.66 31.145C100.66 30.395 100.815 29.715 101.125 29.105C101.435 28.495 101.855 28.02 102.385 27.68C102.925 27.33 103.52 27.155 104.17 27.155C104.76 27.155 105.305 27.305 105.805 27.605C106.305 27.895 106.685 28.275 106.945 28.745V24.35C106.945 24.22 106.985 24.115 107.065 24.035C107.155 23.945 107.265 23.9 107.395 23.9ZM104.275 34.31C104.795 34.31 105.26 34.175 105.67 33.905C106.09 33.635 106.415 33.26 106.645 32.78C106.885 32.29 107.005 31.745 107.005 31.145C107.005 30.555 106.885 30.02 106.645 29.54C106.415 29.06 106.09 28.685 105.67 28.415C105.26 28.135 104.795 27.995 104.275 27.995C103.755 27.995 103.285 28.135 102.865 28.415C102.455 28.685 102.13 29.06 101.89 29.54C101.66 30.02 101.545 30.555 101.545 31.145C101.545 31.745 101.66 32.285 101.89 32.765C102.13 33.245 102.455 33.625 102.865 33.905C103.285 34.175 103.755 34.31 104.275 34.31ZM116.158 27.38C116.288 27.38 116.393 27.425 116.473 27.515C116.563 27.595 116.608 27.7 116.608 27.83V32.06C116.608 33.04 116.333 33.795 115.783 34.325C115.233 34.845 114.473 35.105 113.503 35.105C112.543 35.105 111.788 34.845 111.238 34.325C110.698 33.795 110.428 33.04 110.428 32.06V27.83C110.428 27.7 110.468 27.595 110.548 27.515C110.638 27.425 110.748 27.38 110.878 27.38C111.008 27.38 111.113 27.425 111.193 27.515C111.283 27.595 111.328 27.7 111.328 27.83V32.06C111.328 32.78 111.518 33.33 111.898 33.71C112.278 34.08 112.813 34.265 113.503 34.265C114.203 34.265 114.743 34.08 115.123 33.71C115.513 33.33 115.708 32.78 115.708 32.06V27.83C115.708 27.7 115.748 27.595 115.828 27.515C115.918 27.425 116.028 27.38 116.158 27.38ZM122.283 27.155C122.753 27.155 123.188 27.21 123.588 27.32C123.998 27.42 124.323 27.56 124.563 27.74C124.813 27.92 124.938 28.115 124.938 28.325C124.938 28.435 124.898 28.535 124.818 28.625C124.748 28.715 124.658 28.76 124.548 28.76C124.448 28.76 124.363 28.74 124.293 28.7C124.233 28.66 124.163 28.6 124.083 28.52C123.953 28.39 123.828 28.295 123.708 28.235C123.558 28.165 123.358 28.11 123.108 28.07C122.868 28.02 122.608 27.995 122.328 27.995C121.778 27.995 121.273 28.135 120.813 28.415C120.363 28.695 120.008 29.075 119.748 29.555C119.488 30.035 119.358 30.565 119.358 31.145C119.358 31.745 119.483 32.285 119.733 32.765C119.983 33.245 120.328 33.625 120.768 33.905C121.218 34.175 121.728 34.31 122.298 34.31C122.658 34.31 122.943 34.28 123.153 34.22C123.373 34.16 123.588 34.075 123.798 33.965C123.868 33.925 123.988 33.835 124.158 33.695C124.238 33.625 124.308 33.575 124.368 33.545C124.428 33.505 124.493 33.485 124.563 33.485C124.683 33.485 124.778 33.525 124.848 33.605C124.918 33.675 124.953 33.77 124.953 33.89C124.953 34.06 124.833 34.245 124.593 34.445C124.353 34.635 124.023 34.8 123.603 34.94C123.183 35.08 122.718 35.15 122.208 35.15C121.478 35.15 120.828 34.98 120.258 34.64C119.688 34.29 119.243 33.81 118.923 33.2C118.613 32.59 118.458 31.905 118.458 31.145C118.458 30.415 118.618 29.75 118.938 29.15C119.258 28.54 119.708 28.055 120.288 27.695C120.868 27.335 121.533 27.155 122.283 27.155ZM128.173 28.205V33.23C128.173 33.61 128.243 33.87 128.383 34.01C128.523 34.14 128.708 34.205 128.938 34.205C128.998 34.205 129.073 34.195 129.163 34.175C129.253 34.145 129.323 34.13 129.373 34.13C129.463 34.13 129.538 34.17 129.598 34.25C129.668 34.32 129.703 34.405 129.703 34.505C129.703 34.645 129.623 34.765 129.463 34.865C129.303 34.955 129.113 35 128.893 35C128.623 35 128.383 34.975 128.173 34.925C127.963 34.875 127.758 34.725 127.558 34.475C127.368 34.225 127.273 33.825 127.273 33.275V28.205H126.178C126.058 28.205 125.953 28.165 125.863 28.085C125.783 28.005 125.743 27.905 125.743 27.785C125.743 27.665 125.783 27.565 125.863 27.485C125.953 27.405 126.058 27.365 126.178 27.365H127.273V25.7C127.273 25.57 127.313 25.465 127.393 25.385C127.483 25.295 127.593 25.25 127.723 25.25C127.853 25.25 127.958 25.295 128.038 25.385C128.128 25.465 128.173 25.57 128.173 25.7V27.365H129.673C129.783 27.365 129.878 27.41 129.958 27.5C130.048 27.59 130.093 27.69 130.093 27.8C130.093 27.92 130.053 28.02 129.973 28.1C129.893 28.17 129.793 28.205 129.673 28.205H128.173ZM142.938 31.16C142.938 31.91 142.773 32.59 142.443 33.2C142.113 33.81 141.658 34.29 141.078 34.64C140.498 34.98 139.853 35.15 139.143 35.15C138.433 35.15 137.788 34.98 137.208 34.64C136.628 34.29 136.173 33.81 135.843 33.2C135.513 32.59 135.348 31.91 135.348 31.16C135.348 30.41 135.513 29.73 135.843 29.12C136.173 28.51 136.628 28.03 137.208 27.68C137.788 27.33 138.433 27.155 139.143 27.155C139.853 27.155 140.498 27.33 141.078 27.68C141.658 28.03 142.113 28.51 142.443 29.12C142.773 29.73 142.938 30.41 142.938 31.16ZM142.038 31.16C142.038 30.56 141.913 30.02 141.663 29.54C141.413 29.06 141.063 28.685 140.613 28.415C140.173 28.135 139.683 27.995 139.143 27.995C138.603 27.995 138.113 28.135 137.673 28.415C137.233 28.685 136.883 29.06 136.623 29.54C136.373 30.02 136.248 30.56 136.248 31.16C136.248 31.75 136.373 32.285 136.623 32.765C136.883 33.245 137.233 33.625 137.673 33.905C138.113 34.175 138.603 34.31 139.143 34.31C139.683 34.31 140.173 34.175 140.613 33.905C141.063 33.635 141.413 33.26 141.663 32.78C141.913 32.3 142.038 31.76 142.038 31.16ZM148.364 27.155C148.564 27.155 148.744 27.195 148.904 27.275C149.064 27.355 149.144 27.475 149.144 27.635C149.144 27.775 149.104 27.89 149.024 27.98C148.944 28.06 148.849 28.1 148.739 28.1C148.689 28.1 148.589 28.075 148.439 28.025C148.299 27.975 148.164 27.95 148.034 27.95C147.664 27.95 147.294 28.095 146.924 28.385C146.564 28.665 146.264 29.03 146.024 29.48C145.794 29.93 145.679 30.385 145.679 30.845V34.55C145.679 34.68 145.634 34.79 145.544 34.88C145.464 34.96 145.359 35 145.229 35C145.099 35 144.989 34.96 144.899 34.88C144.819 34.79 144.779 34.68 144.779 34.55V27.83C144.779 27.7 144.819 27.595 144.899 27.515C144.989 27.425 145.099 27.38 145.229 27.38C145.359 27.38 145.464 27.425 145.544 27.515C145.634 27.595 145.679 27.7 145.679 27.83V29.15C145.909 28.58 146.254 28.11 146.714 27.74C147.184 27.36 147.734 27.165 148.364 27.155ZM160.877 27.335C161.007 27.335 161.112 27.38 161.192 27.47C161.282 27.56 161.327 27.67 161.327 27.8V34.55C161.327 34.68 161.282 34.79 161.192 34.88C161.112 34.96 161.007 35 160.877 35C160.747 35 160.637 34.96 160.547 34.88C160.467 34.79 160.427 34.68 160.427 34.55V33.545C160.177 33.995 159.802 34.375 159.302 34.685C158.802 34.995 158.257 35.15 157.667 35.15C156.997 35.15 156.392 34.975 155.852 34.625C155.322 34.275 154.902 33.795 154.592 33.185C154.292 32.575 154.142 31.89 154.142 31.13C154.142 30.37 154.297 29.69 154.607 29.09C154.917 28.48 155.337 28.005 155.867 27.665C156.407 27.325 157.002 27.155 157.652 27.155C158.252 27.155 158.802 27.3 159.302 27.59C159.802 27.88 160.177 28.26 160.427 28.73V27.8C160.427 27.67 160.467 27.56 160.547 27.47C160.637 27.38 160.747 27.335 160.877 27.335ZM157.757 34.31C158.277 34.31 158.742 34.175 159.152 33.905C159.572 33.625 159.897 33.245 160.127 32.765C160.367 32.275 160.487 31.73 160.487 31.13C160.487 30.55 160.367 30.02 160.127 29.54C159.897 29.06 159.572 28.685 159.152 28.415C158.742 28.135 158.277 27.995 157.757 27.995C157.237 27.995 156.767 28.13 156.347 28.4C155.937 28.67 155.612 29.045 155.372 29.525C155.142 29.995 155.027 30.53 155.027 31.13C155.027 31.73 155.142 32.275 155.372 32.765C155.602 33.245 155.922 33.625 156.332 33.905C156.752 34.175 157.227 34.31 157.757 34.31ZM167.29 27.155C168.22 27.155 168.9 27.43 169.33 27.98C169.77 28.52 169.99 29.24 169.99 30.14V34.55C169.99 34.68 169.945 34.79 169.855 34.88C169.765 34.96 169.66 35 169.54 35C169.41 35 169.3 34.96 169.21 34.88C169.13 34.79 169.09 34.68 169.09 34.55V30.185C169.09 29.535 168.925 29.01 168.595 28.61C168.275 28.2 167.775 27.995 167.095 27.995C166.665 27.995 166.255 28.095 165.865 28.295C165.485 28.495 165.175 28.765 164.935 29.105C164.695 29.435 164.575 29.795 164.575 30.185V34.55C164.575 34.68 164.53 34.79 164.44 34.88C164.36 34.96 164.255 35 164.125 35C163.995 35 163.885 34.96 163.795 34.88C163.715 34.79 163.675 34.68 163.675 34.55V27.83C163.675 27.7 163.715 27.595 163.795 27.515C163.885 27.425 163.995 27.38 164.125 27.38C164.255 27.38 164.36 27.425 164.44 27.515C164.53 27.595 164.575 27.7 164.575 27.83V28.655C164.845 28.225 165.23 27.87 165.73 27.59C166.24 27.3 166.76 27.155 167.29 27.155ZM177.989 27.2C178.119 27.2 178.224 27.245 178.304 27.335C178.394 27.415 178.439 27.52 178.439 27.65V34.265C178.439 35.055 178.284 35.73 177.974 36.29C177.664 36.85 177.234 37.275 176.684 37.565C176.134 37.855 175.514 38 174.824 38C174.404 38 174.009 37.955 173.639 37.865C173.279 37.775 172.979 37.655 172.739 37.505C172.529 37.375 172.424 37.23 172.424 37.07C172.424 37.05 172.434 37 172.454 36.92C172.484 36.82 172.534 36.745 172.604 36.695C172.674 36.645 172.749 36.62 172.829 36.62C172.889 36.62 172.949 36.635 173.009 36.665C173.649 37.015 174.259 37.19 174.839 37.19C175.669 37.19 176.324 36.93 176.804 36.41C177.294 35.89 177.539 35.18 177.539 34.28V33.755C177.289 34.175 176.929 34.515 176.459 34.775C175.989 35.025 175.479 35.15 174.929 35.15C174.059 35.15 173.399 34.89 172.949 34.37C172.499 33.85 172.274 33.145 172.274 32.255V27.65C172.274 27.52 172.314 27.415 172.394 27.335C172.484 27.245 172.594 27.2 172.724 27.2C172.854 27.2 172.959 27.245 173.039 27.335C173.129 27.415 173.174 27.52 173.174 27.65V32.12C173.174 32.84 173.329 33.385 173.639 33.755C173.959 34.125 174.454 34.31 175.124 34.31C175.534 34.31 175.924 34.21 176.294 34.01C176.674 33.8 176.974 33.53 177.194 33.2C177.424 32.86 177.539 32.5 177.539 32.12V27.65C177.539 27.52 177.579 27.415 177.659 27.335C177.749 27.245 177.859 27.2 177.989 27.2ZM191.981 31.16C191.981 31.91 191.816 32.59 191.486 33.2C191.156 33.81 190.701 34.29 190.121 34.64C189.541 34.98 188.896 35.15 188.186 35.15C187.476 35.15 186.831 34.98 186.251 34.64C185.671 34.29 185.216 33.81 184.886 33.2C184.556 32.59 184.391 31.91 184.391 31.16C184.391 30.41 184.556 29.73 184.886 29.12C185.216 28.51 185.671 28.03 186.251 27.68C186.831 27.33 187.476 27.155 188.186 27.155C188.896 27.155 189.541 27.33 190.121 27.68C190.701 28.03 191.156 28.51 191.486 29.12C191.816 29.73 191.981 30.41 191.981 31.16ZM191.081 31.16C191.081 30.56 190.956 30.02 190.706 29.54C190.456 29.06 190.106 28.685 189.656 28.415C189.216 28.135 188.726 27.995 188.186 27.995C187.646 27.995 187.156 28.135 186.716 28.415C186.276 28.685 185.926 29.06 185.666 29.54C185.416 30.02 185.291 30.56 185.291 31.16C185.291 31.75 185.416 32.285 185.666 32.765C185.926 33.245 186.276 33.625 186.716 33.905C187.156 34.175 187.646 34.31 188.186 34.31C188.726 34.31 189.216 34.175 189.656 33.905C190.106 33.635 190.456 33.26 190.706 32.78C190.956 32.3 191.081 31.76 191.081 31.16ZM197.407 27.155C197.607 27.155 197.787 27.195 197.947 27.275C198.107 27.355 198.187 27.475 198.187 27.635C198.187 27.775 198.147 27.89 198.067 27.98C197.987 28.06 197.892 28.1 197.782 28.1C197.732 28.1 197.632 28.075 197.482 28.025C197.342 27.975 197.207 27.95 197.077 27.95C196.707 27.95 196.337 28.095 195.967 28.385C195.607 28.665 195.307 29.03 195.067 29.48C194.837 29.93 194.722 30.385 194.722 30.845V34.55C194.722 34.68 194.677 34.79 194.587 34.88C194.507 34.96 194.402 35 194.272 35C194.142 35 194.032 34.96 193.942 34.88C193.862 34.79 193.822 34.68 193.822 34.55V27.83C193.822 27.7 193.862 27.595 193.942 27.515C194.032 27.425 194.142 27.38 194.272 27.38C194.402 27.38 194.507 27.425 194.587 27.515C194.677 27.595 194.722 27.7 194.722 27.83V29.15C194.952 28.58 195.297 28.11 195.757 27.74C196.227 27.36 196.777 27.165 197.407 27.155ZM205.481 23.9C205.611 23.9 205.716 23.945 205.796 24.035C205.886 24.115 205.931 24.22 205.931 24.35V34.55C205.931 34.68 205.886 34.79 205.796 34.88C205.716 34.96 205.611 35 205.481 35C205.351 35 205.241 34.96 205.151 34.88C205.071 34.79 205.031 34.68 205.031 34.55V33.5C204.781 33.96 204.406 34.35 203.906 34.67C203.416 34.99 202.871 35.15 202.271 35.15C201.611 35.15 201.011 34.98 200.471 34.64C199.941 34.29 199.521 33.81 199.211 33.2C198.901 32.59 198.746 31.905 198.746 31.145C198.746 30.395 198.901 29.715 199.211 29.105C199.521 28.495 199.941 28.02 200.471 27.68C201.011 27.33 201.606 27.155 202.256 27.155C202.846 27.155 203.391 27.305 203.891 27.605C204.391 27.895 204.771 28.275 205.031 28.745V24.35C205.031 24.22 205.071 24.115 205.151 24.035C205.241 23.945 205.351 23.9 205.481 23.9ZM202.361 34.31C202.881 34.31 203.346 34.175 203.756 33.905C204.176 33.635 204.501 33.26 204.731 32.78C204.971 32.29 205.091 31.745 205.091 31.145C205.091 30.555 204.971 30.02 204.731 29.54C204.501 29.06 204.176 28.685 203.756 28.415C203.346 28.135 202.881 27.995 202.361 27.995C201.841 27.995 201.371 28.135 200.951 28.415C200.541 28.685 200.216 29.06 199.976 29.54C199.746 30.02 199.631 30.555 199.631 31.145C199.631 31.745 199.746 32.285 199.976 32.765C200.216 33.245 200.541 33.625 200.951 33.905C201.371 34.175 201.841 34.31 202.361 34.31ZM214.76 30.725C214.76 30.845 214.715 30.95 214.625 31.04C214.535 31.12 214.43 31.16 214.31 31.16H208.64C208.64 31.76 208.76 32.3 209 32.78C209.25 33.25 209.6 33.625 210.05 33.905C210.51 34.175 211.05 34.31 211.67 34.31C212.15 34.31 212.58 34.21 212.96 34.01C213.34 33.81 213.645 33.555 213.875 33.245C213.985 33.155 214.09 33.11 214.19 33.11C214.29 33.11 214.38 33.15 214.46 33.23C214.54 33.31 214.58 33.4 214.58 33.5C214.58 33.61 214.53 33.715 214.43 33.815C214.11 34.205 213.705 34.525 213.215 34.775C212.735 35.025 212.225 35.15 211.685 35.15C210.915 35.15 210.235 34.985 209.645 34.655C209.055 34.325 208.595 33.865 208.265 33.275C207.935 32.675 207.77 31.985 207.77 31.205C207.77 30.385 207.93 29.67 208.25 29.06C208.58 28.44 209.015 27.97 209.555 27.65C210.095 27.32 210.67 27.155 211.28 27.155C211.88 27.155 212.44 27.295 212.96 27.575C213.49 27.855 213.92 28.265 214.25 28.805C214.58 29.345 214.75 29.985 214.76 30.725ZM211.28 28.025C210.7 28.025 210.16 28.225 209.66 28.625C209.17 29.025 208.855 29.6 208.715 30.35H213.83V30.23C213.78 29.78 213.63 29.39 213.38 29.06C213.13 28.72 212.815 28.465 212.435 28.295C212.065 28.115 211.68 28.025 211.28 28.025ZM220.2 27.155C220.4 27.155 220.58 27.195 220.74 27.275C220.9 27.355 220.98 27.475 220.98 27.635C220.98 27.775 220.94 27.89 220.86 27.98C220.78 28.06 220.685 28.1 220.575 28.1C220.525 28.1 220.425 28.075 220.275 28.025C220.135 27.975 220 27.95 219.87 27.95C219.5 27.95 219.13 28.095 218.76 28.385C218.4 28.665 218.1 29.03 217.86 29.48C217.63 29.93 217.515 30.385 217.515 30.845V34.55C217.515 34.68 217.47 34.79 217.38 34.88C217.3 34.96 217.195 35 217.065 35C216.935 35 216.825 34.96 216.735 34.88C216.655 34.79 216.615 34.68 216.615 34.55V27.83C216.615 27.7 216.655 27.595 216.735 27.515C216.825 27.425 216.935 27.38 217.065 27.38C217.195 27.38 217.3 27.425 217.38 27.515C217.47 27.595 217.515 27.7 217.515 27.83V29.15C217.745 28.58 218.09 28.11 218.55 27.74C219.02 27.36 219.57 27.165 220.2 27.155ZM220.924 35C220.754 35 220.624 34.95 220.534 34.85C220.444 34.74 220.399 34.595 220.399 34.415V34.1C220.399 33.92 220.444 33.78 220.534 33.68C220.624 33.58 220.754 33.53 220.924 33.53H221.029C221.199 33.53 221.329 33.58 221.419 33.68C221.509 33.78 221.554 33.92 221.554 34.1V34.415C221.554 34.595 221.509 34.74 221.419 34.85C221.329 34.95 221.199 35 221.029 35H220.924ZM223.634 35C223.464 35 223.334 34.95 223.244 34.85C223.154 34.74 223.109 34.595 223.109 34.415V34.1C223.109 33.92 223.154 33.78 223.244 33.68C223.334 33.58 223.464 33.53 223.634 33.53H223.739C223.909 33.53 224.039 33.58 224.129 33.68C224.219 33.78 224.264 33.92 224.264 34.1V34.415C224.264 34.595 224.219 34.74 224.129 34.85C224.039 34.95 223.909 35 223.739 35H223.634ZM226.344 35C226.174 35 226.044 34.95 225.954 34.85C225.864 34.74 225.819 34.595 225.819 34.415V34.1C225.819 33.92 225.864 33.78 225.954 33.68C226.044 33.58 226.174 33.53 226.344 33.53H226.449C226.619 33.53 226.749 33.58 226.839 33.68C226.929 33.78 226.974 33.92 226.974 34.1V34.415C226.974 34.595 226.929 34.74 226.839 34.85C226.749 34.95 226.619 35 226.449 35H226.344Z" fill="#89928E"/>
</svg>
