<svg width="68" height="12" viewBox="0 0 68 12" fill="none" xmlns="http://www.w3.org/2000/svg">
<path d="M4.11197 11.52C3.3333 11.52 2.6453 11.4133 2.04797 11.2C1.45063 10.976 0.879968 10.6187 0.335968 10.128C0.111968 9.93599 -3.21865e-05 9.71732 -3.21865e-05 9.47199C-3.21865e-05 9.27999 0.0746345 9.10932 0.223968 8.95999C0.373301 8.79999 0.549301 8.71999 0.751968 8.71999C0.933301 8.71999 1.08797 8.77865 1.21597 8.89599C1.64263 9.29065 2.07997 9.58399 2.52797 9.77599C2.98663 9.95732 3.50397 10.048 4.07997 10.048C4.75197 10.048 5.3173 9.89332 5.77597 9.58399C6.2453 9.27465 6.47997 8.88532 6.47997 8.41599C6.4693 7.86132 6.23463 7.43465 5.77597 7.13599C5.32797 6.82665 4.63997 6.57065 3.71197 6.36799C2.6133 6.14399 1.7653 5.77599 1.16797 5.26399C0.581301 4.75199 0.287968 4.04265 0.287968 3.13599C0.287968 2.50665 0.453301 1.95732 0.783968 1.48798C1.11463 1.00798 1.5733 0.639984 2.15997 0.383985C2.74663 0.127985 3.40797 -1.52588e-05 4.14397 -1.52588e-05C4.8053 -1.52588e-05 5.4293 0.106651 6.01597 0.319984C6.60263 0.533318 7.0773 0.815985 7.43997 1.16798C7.6853 1.38132 7.80797 1.61065 7.80797 1.85598C7.80797 2.04798 7.7333 2.21865 7.58397 2.36798C7.4453 2.51732 7.27463 2.59198 7.07197 2.59198C6.92263 2.59198 6.79997 2.54932 6.70397 2.46398C6.42663 2.18665 6.04263 1.95199 5.55197 1.75998C5.0613 1.56798 4.59197 1.47198 4.14397 1.47198C3.4293 1.47198 2.85863 1.62132 2.43197 1.91998C2.01597 2.20798 1.80797 2.59199 1.80797 3.07199C1.80797 3.59465 2.01597 3.99465 2.43197 4.27199C2.85863 4.54932 3.48797 4.78398 4.31997 4.97599C5.15197 5.15732 5.8293 5.37065 6.35197 5.61598C6.8853 5.86132 7.29597 6.20265 7.58397 6.63999C7.87197 7.07732 8.01597 7.64799 8.01597 8.35199C8.01597 8.97065 7.83997 9.51999 7.48797 9.99999C7.14664 10.48 6.6773 10.8533 6.07997 11.12C5.48263 11.3867 4.82663 11.52 4.11197 11.52ZM17.2965 0.159985C17.5205 0.159985 17.7018 0.229318 17.8405 0.367985C17.9898 0.495985 18.0645 0.671985 18.0645 0.895985C18.0645 1.11998 17.9898 1.29598 17.8405 1.42398C17.7018 1.55198 17.5205 1.61598 17.2965 1.61598H14.4485V10.592C14.4485 10.8053 14.3685 10.9867 14.2085 11.136C14.0591 11.2853 13.8671 11.36 13.6325 11.36C13.3978 11.36 13.2005 11.2853 13.0405 11.136C12.8911 10.9867 12.8165 10.8053 12.8165 10.592V1.61598H9.98447C9.76047 1.61598 9.5738 1.55198 9.42447 1.42398C9.2858 1.28532 9.21647 1.10399 9.21647 0.879985C9.21647 0.666652 9.2858 0.495985 9.42447 0.367985C9.5738 0.229318 9.76047 0.159985 9.98447 0.159985H17.2965ZM27.7186 10.368C27.7506 10.464 27.7666 10.5653 27.7666 10.672C27.7666 10.8853 27.6919 11.0613 27.5426 11.2C27.4039 11.3387 27.2386 11.408 27.0466 11.408C26.8973 11.408 26.7586 11.3653 26.6306 11.28C26.5133 11.184 26.4173 11.056 26.3426 10.896L25.3506 8.54399H20.4066L19.4306 10.912C19.3773 11.072 19.2866 11.1947 19.1586 11.28C19.0413 11.3653 18.9079 11.408 18.7586 11.408C18.5346 11.408 18.3639 11.3493 18.2466 11.232C18.1293 11.1147 18.0706 10.9547 18.0706 10.752C18.0706 10.7093 18.0813 10.624 18.1026 10.496L22.1826 0.607985C22.2573 0.437318 22.3586 0.309318 22.4866 0.223985C22.6253 0.127985 22.7799 0.0906515 22.9506 0.111985C23.1106 0.111985 23.2546 0.154652 23.3826 0.239985C23.5106 0.325318 23.6013 0.447985 23.6546 0.607985L27.7186 10.368ZM21.0146 7.08799H24.7426L22.8706 2.60798L21.0146 7.08799ZM37.9042 10.08C38.0109 10.1547 38.0962 10.2507 38.1602 10.368C38.2242 10.4747 38.2562 10.5867 38.2562 10.704C38.2562 10.928 38.1816 11.0933 38.0322 11.2C37.8936 11.3067 37.7229 11.36 37.5202 11.36C37.3176 11.36 37.1469 11.3173 37.0082 11.232C36.6882 11.0507 36.4269 10.7573 36.2242 10.352C36.0216 9.94665 35.9202 9.34932 35.9202 8.55999C35.9202 8.02665 35.7602 7.63199 35.4402 7.37599C35.1202 7.11999 34.7042 6.99199 34.1922 6.99199H30.9602V10.592C30.9602 10.816 30.8962 11.0027 30.7682 11.152C30.6402 11.2907 30.4749 11.36 30.2722 11.36C30.0269 11.36 29.8136 11.2853 29.6322 11.136C29.4616 10.9867 29.3762 10.8053 29.3762 10.592V0.927985C29.3762 0.714651 29.4509 0.533318 29.6002 0.383985C29.7496 0.234651 29.9309 0.159985 30.1442 0.159985H34.6402C35.2162 0.159985 35.7442 0.303985 36.2242 0.591985C36.7042 0.869318 37.0882 1.25865 37.3762 1.75998C37.6642 2.25065 37.8082 2.80532 37.8082 3.42399C37.8082 4.02132 37.6482 4.58132 37.3282 5.10398C37.0082 5.61598 36.5976 5.99999 36.0962 6.25599C36.4909 6.45865 36.8002 6.74132 37.0242 7.10399C37.2589 7.46665 37.3869 7.88799 37.4082 8.36799C37.4509 8.97599 37.4989 9.39199 37.5522 9.61599C37.6056 9.82932 37.7229 9.98399 37.9042 10.08ZM34.6082 5.66399C34.8749 5.64265 35.1256 5.53599 35.3602 5.34399C35.6056 5.15199 35.8029 4.89598 35.9522 4.57598C36.1016 4.24532 36.1762 3.87732 36.1762 3.47198C36.1762 2.95999 36.0162 2.52799 35.6962 2.17599C35.3869 1.81332 35.0082 1.63198 34.5602 1.63198H30.9602V5.66399H34.6082ZM47.2808 0.159985C47.5048 0.159985 47.6862 0.229318 47.8248 0.367985C47.9742 0.495985 48.0488 0.671985 48.0488 0.895985C48.0488 1.11998 47.9742 1.29598 47.8248 1.42398C47.6862 1.55198 47.5048 1.61598 47.2808 1.61598H44.4328V10.592C44.4328 10.8053 44.3528 10.9867 44.1928 11.136C44.0435 11.2853 43.8515 11.36 43.6168 11.36C43.3822 11.36 43.1848 11.2853 43.0248 11.136C42.8755 10.9867 42.8008 10.8053 42.8008 10.592V1.61598H39.9688C39.7448 1.61598 39.5582 1.55198 39.4088 1.42398C39.2702 1.28532 39.2008 1.10399 39.2008 0.879985C39.2008 0.666652 39.2702 0.495985 39.4088 0.367985C39.5582 0.229318 39.7448 0.159985 39.9688 0.159985H47.2808ZM56.2278 9.88799C56.4518 9.88799 56.6332 9.96265 56.7718 10.112C56.9212 10.2613 56.9958 10.4373 56.9958 10.64C56.9958 10.8533 56.9212 11.0293 56.7718 11.168C56.6332 11.296 56.4518 11.36 56.2278 11.36H50.6598C50.4465 11.36 50.2652 11.2853 50.1158 11.136C49.9665 10.9867 49.8918 10.8053 49.8918 10.592V0.927985C49.8918 0.714651 49.9665 0.533318 50.1158 0.383985C50.2652 0.234651 50.4465 0.159985 50.6598 0.159985H56.2278C56.4518 0.159985 56.6332 0.229318 56.7718 0.367985C56.9212 0.506652 56.9958 0.687985 56.9958 0.911984C56.9958 1.12532 56.9212 1.30132 56.7718 1.43999C56.6332 1.56798 56.4518 1.63198 56.2278 1.63198H51.4758V4.89599H55.5078C55.7318 4.89599 55.9132 4.96532 56.0518 5.10398C56.2012 5.24265 56.2758 5.41865 56.2758 5.63199C56.2758 5.85599 56.2012 6.03199 56.0518 6.15999C55.9132 6.28799 55.7318 6.35198 55.5078 6.35198H51.4758V9.88799H56.2278ZM67.5448 10.08C67.6515 10.1547 67.7368 10.2507 67.8008 10.368C67.8648 10.4747 67.8968 10.5867 67.8968 10.704C67.8968 10.928 67.8222 11.0933 67.6728 11.2C67.5342 11.3067 67.3635 11.36 67.1608 11.36C66.9582 11.36 66.7875 11.3173 66.6488 11.232C66.3288 11.0507 66.0675 10.7573 65.8648 10.352C65.6622 9.94665 65.5608 9.34932 65.5608 8.55999C65.5608 8.02665 65.4008 7.63199 65.0808 7.37599C64.7608 7.11999 64.3448 6.99199 63.8328 6.99199H60.6008V10.592C60.6008 10.816 60.5368 11.0027 60.4088 11.152C60.2808 11.2907 60.1155 11.36 59.9128 11.36C59.6675 11.36 59.4542 11.2853 59.2728 11.136C59.1022 10.9867 59.0168 10.8053 59.0168 10.592V0.927985C59.0168 0.714651 59.0915 0.533318 59.2408 0.383985C59.3902 0.234651 59.5715 0.159985 59.7848 0.159985H64.2808C64.8568 0.159985 65.3848 0.303985 65.8648 0.591985C66.3448 0.869318 66.7288 1.25865 67.0168 1.75998C67.3048 2.25065 67.4488 2.80532 67.4488 3.42399C67.4488 4.02132 67.2888 4.58132 66.9688 5.10398C66.6488 5.61598 66.2382 5.99999 65.7368 6.25599C66.1315 6.45865 66.4408 6.74132 66.6648 7.10399C66.8995 7.46665 67.0275 7.88799 67.0488 8.36799C67.0915 8.97599 67.1395 9.39199 67.1928 9.61599C67.2462 9.82932 67.3635 9.98399 67.5448 10.08ZM64.2488 5.66399C64.5155 5.64265 64.7662 5.53599 65.0008 5.34399C65.2462 5.15199 65.4435 4.89598 65.5928 4.57598C65.7422 4.24532 65.8168 3.87732 65.8168 3.47198C65.8168 2.95999 65.6568 2.52799 65.3368 2.17599C65.0275 1.81332 64.6488 1.63198 64.2008 1.63198H60.6008V5.66399H64.2488Z" fill="#ECF3F5"/>
</svg>
